<?xml version="1.0" encoding="UTF-8"?>
<svg id="Layer_1" xmlns="http://www.w3.org/2000/svg" version="1.1" viewBox="0 0 24 24">
  <!-- Generator: Adobe Illustrator 29.3.1, SVG Export Plug-In . SVG Version: 2.1.0 Build 151)  -->
  <defs>
    <style>
      .st0 {
        fill: #cecece;
        fill-opacity: .8;
      }
    </style>
  </defs>
  <path class="st0" d="M19.5,8.8c-.6.4-1.2,1-1.5,1.6-.4.7-.6,1.4-.6,2.2s.3,1.7.7,2.4c.5.7,1.1,1.3,1.9,1.6-.3,1-.8,2-1.4,2.8-.8,1.2-1.7,2.5-3.1,2.5s-1.7-.8-3.2-.8-2,.8-3.3.8-2.1-1.1-3.1-2.5c-1.3-2-2-4.3-2.1-6.6,0-3.9,2.5-5.9,4.9-5.9s2.4.9,3.2.9,2-.9,3.5-.9,1.5.2,2.2.5c.7.3,1.3.9,1.7,1.5h.2ZM14.9,5.2c.7-.8,1-1.8,1-2.8v-.4c-1.1.1-2.2.7-2.9,1.5-.7.7-1,1.7-1.1,2.7v.4h.3c.5,0,1-.2,1.5-.4.5-.2.9-.6,1.2-1Z"/>
</svg>