<?xml version="1.0" encoding="UTF-8"?>
<svg id="Layer_1" xmlns="http://www.w3.org/2000/svg" version="1.1" viewBox="0 0 24 24">
  <!-- Generator: Adobe Illustrator 29.3.1, SVG Export Plug-In . SVG Version: 2.1.0 Build 151)  -->
  <defs>
    <style>
      .st0 {
        fill: #ccc;
        fill-opacity: .8;
      }
    </style>
  </defs>
  <path class="st0" d="M18.8,17.7l-3.8-3.8c.7-.9,1.1-2.1,1.1-3.3,0-3-2.5-5.5-5.5-5.5s-5.5,2.5-5.5,5.5,2.5,5.5,5.5,5.5,2.4-.4,3.3-1.1l3.8,3.8c.2.2.3.2.5.2s.4,0,.5-.2c.3-.3.3-.8,0-1.1h.1ZM6.1,10.5c0-2.4,2-4.4,4.4-4.4s4.4,2,4.4,4.4-2,4.4-4.4,4.4-4.4-2-4.4-4.4Z"/>
</svg>